<svg xmlns="http://www.w3.org/2000/svg" width="199" height="181" fill="none"><g clip-path="url(#a)"><path fill="#FF4D00" d="M110.326 74.05a38.305 38.305 0 0 1 2.739-4.414 50.86 50.86 0 0 1-9.545.878c-6.31 0-11.953-1.05-17.153-3.16 3.853 3.554 9.874 6.571 20.86 6.845a47.03 47.03 0 0 0 3.099-.15ZM127.355 47.595v16.91a38.965 38.965 0 0 1 3.032 3.423c.349-.199.694-.398 1.035-.604v-19.59l-4.067-.14ZM5.59 81.003c5.497-1.523 13.766-3.558 20.834-5.036v-4.853l4.063 2.586v5.63c-9.192 1.846-18.567 4.109-24.897 5.865v-4.192ZM22.544 23.152c0-4.481.75-6.193 4.127-9.15l4.022-.75v3.512c-3.418 2.54-4.067 3.975-4.067 8.872v4.387l-4.082.788v-7.66ZM22.544 50.785c4.987-1.066 10.67-2.252 15.612-3.19v4.128c-4.341.83-8.776 1.708-11.548 2.252V67.11c-3.557-1.99-4.064-2.773-4.064-6.887v-9.438ZM44.163 72.844c6.419-1.017 14.46-2.034 20.833-2.627v-4.834l4.064 2.868v5.629c-8.686.75-17.829 1.94-24.897 3.047v-4.083ZM60.978 17.189c0-4.85.69-6.238 4.063-8.779l4.067-.375v3.51c-3.283 2.311-4.067 3.835-4.067 8.503v41.316c-3.65-2.585-4.063-3.557-4.063-7.16V17.189ZM102.92 15.424c4.067 0 7.484 1.847 9.24 4.898a11.565 11.565 0 0 0-6.239-1.711c-7.853 0-13.071 6.47-13.071 16.914 0 5.866 1.617 11.687 3.973 14.97-4.941-2.59-7.991-8.781-7.991-16.542 0-10.648 5.792-18.529 14.088-18.529ZM126.204 27.265V9.195A76.829 76.829 0 0 1 130.267 11v20.514l-6.975-.552-2.033-4.128 4.945.431ZM168.051 77.768c14.231 0 23.607-7.993 23.607-20.934V27.265c0-3.884.878-5.63 3.466-6.609l3.88 1.107v3.235c-2.495.927-3.279 2.496-3.279 6.054V57.99c0 14.325-10.626 23.569-25.779 23.569-9.608 0-21.524-3.697-27.992-12.985 7.713 6.376 17.693 9.194 26.097 9.194Z"/><path fill="#FF4D00" d="M154.98 19.5c0-4.158.75-5.82 3.467-7.13l3.879.694v3.186c-2.401 1.062-3.279 2.627-3.279 6.838v33.13c-2.172-1.8-4.067-5.126-4.067-9.933V19.5Z"/><path fill="#002F87" d="M136.225 45.331V16.36c0-5.453-.601-7.026-3.974-9.657V3.006c7.253.6 16.508 1.985 22.962 3.047v3.753c-3.328 2.03-3.974 3.28-3.974 8.594v27.798c0 10.302 7.069 16.033 14.689 16.033 6.329 0 9.563-3.93 9.563-10.445V22.968c0-5.408-.6-6.98-3.973-10.133V9.138c6.607 1.389 14.921 3.42 20.26 4.898v3.753c-3.279 1.801-3.88 3.047-3.88 8.177v29.615c0 11.506-8.04 18.438-20.259 18.438-15.661.007-31.414-9.431-31.414-28.688ZM0 74.904c3.377-3.651 3.928-5.085 3.928-10.027V26.616c0-4.804-.6-6.332-3.928-8.317v-3.697c6.836-1.94 15.292-3.974 22.729-5.543v3.697c-3.377 3.419-3.929 4.849-3.929 10.133V35.55c7.208-1.711 16.032-3.513 23.423-4.901V18.427c0-5.13-.555-6.422-3.928-8.595V6.136C45.179 4.98 53.77 3.734 61.162 2.995V6.69c-3.328 3.048-3.928 4.526-3.928 9.657V54.48c0 4.943.555 6.282 3.928 8.545v3.697c-7.162.788-16.133 2.128-22.867 3.235v-3.697c3.376-3.234 3.928-4.758 3.928-9.656v-13.54c-7.391 1.34-16.17 3.145-23.423 4.879v13.168c0 4.947.556 6.103 3.928 8.088v3.697C15.976 74.375 6.468 76.777 0 78.582v-3.677ZM117.754 56.86a41.234 41.234 0 0 1 5.861 4.043V42.374l-4.667-.277c-2.079 8.361-7.759 12.985-15.844 12.985-11.038 0-17.968-8.595-17.968-21.302 0-12.707 7.207-22.09 17.784-22.09 6.791 0 12.058 3.836 15.06 11.23l4.479.277V4.432A43.904 43.904 0 0 0 103.254 0c-20.23 0-33.86 13.63-33.86 34.152 0 20.145 13.165 32.624 34.047 32.624 1.501 0 3.002-.071 4.454-.203a45.78 45.78 0 0 1 9.859-9.712Z"/><path fill="#FF4D00" d="M97.712 172.575c-6.99 0-10.46-1.648-14.234-8.377-5.564-.893-9.293 5.149-5.252 16.802-6.641-1.374-11.732-5.93-14.704-11.585a32.726 32.726 0 0 1-5.354-4.703 36.84 36.84 0 0 0 .285 4.718c-7.758-6.755-11.63-13.087-12.677-19.801a38.638 38.638 0 0 0-1.83 2.965c-2.695-9.097-3.002-15.815-1.404-21.575a25.67 25.67 0 0 0-3.002 1.67c1.831-8.891 4.203-16.585 10.258-22.781a13.637 13.637 0 0 0-3.324-1.685c1.5-1.655 3.264-3.111 5.282-3.914a61.977 61.977 0 0 1-1.575-6.005c1.658-.3 3.355-.308 5.016-.026C58.4 80.958 66.137 67.962 77.25 60.82c6.337 4.774 11.41 12.024 13.998 22.383 4.287-.781 8.68-.781 12.966 0 2.57-10.37 7.643-17.61 13.976-22.402 11.109 7.13 18.845 20.138 22.049 37.458a14.557 14.557 0 0 1 5.02.026 62.179 62.179 0 0 1-1.579 6.005c2.018.803 3.781 2.252 5.282 3.915a13.56 13.56 0 0 0-3.324 1.685c6.056 6.196 8.427 13.885 10.258 22.78a25.726 25.726 0 0 0-3.002-1.67c1.602 5.761 1.291 12.478-1.403 21.575a37.583 37.583 0 0 0-1.831-2.964c-1.05 6.714-4.919 13.064-12.677 19.8.196-1.565.291-3.14.285-4.717a32.773 32.773 0 0 1-5.354 4.702c-2.975 5.656-8.066 10.212-14.707 11.585 4.048-11.653.319-17.695-5.253-16.802-3.782 6.748-7.248 8.396-14.242 8.396Z"/><path fill="#002F87" d="M97.712 84.917a27.787 27.787 0 0 0-8.34 1.19c-2.157-10.553-7.211-17.894-12.194-22.24-9.72 6.725-17.224 19.564-19.922 37.387a7.41 7.41 0 0 0-3.947-.724c.29 1.369.826 3.261 1.501 5.535a7.088 7.088 0 0 0-3.996 1.595 6.582 6.582 0 0 1 2.555 2.229c-5.162 4.316-8.04 10.133-9.995 17.785a20.484 20.484 0 0 1 3.752-1.253c-2.877 4.969-3.725 11.792-2.026 19.853a25.959 25.959 0 0 1 2.848-3.603c-.431 7.69 1.748 14.085 7.95 20.716-.04-1.705.12-3.409.477-5.077a30.013 30.013 0 0 0 9.075 9.044c1.809 4.091 5.253 7.848 9.004 9.383-2.25-11.499 3.966-16.941 10.828-14.821 3.715 7.078 6.453 8.016 12.43 8.016 5.977 0 8.731-.938 12.43-7.997 6.858-2.12 13.064 3.321 10.824 14.82 3.752-1.553 7.203-5.31 9.004-9.382a30.012 30.012 0 0 0 9.076-9.045c.357 1.669.517 3.373.476 5.078 6.202-6.631 8.382-13.026 7.95-20.716a25.91 25.91 0 0 1 2.848 3.603c1.7-8.062.852-14.884-2.026-19.853a20.41 20.41 0 0 1 3.752 1.253c-1.955-7.671-4.833-13.469-9.995-17.785a6.571 6.571 0 0 1 2.555-2.229 7.09 7.09 0 0 0-3.996-1.595c.664-2.274 1.197-4.166 1.501-5.536a7.411 7.411 0 0 0-3.947.725c-2.694-17.842-10.197-30.68-19.903-37.406-4.979 4.346-10.036 11.687-12.194 22.24a27.787 27.787 0 0 0-8.355-1.19Z"/><path fill="#fff" d="M97.712 161.695c-2.108 0-5.039 1.021-7.504 1.392 1.531 2.916 3.475 3.378 7.504 3.378 4.03 0 6.003-.458 7.504-3.378-2.465-.371-5.395-1.392-7.504-1.392Z"/><path fill="#fff" d="M97.712 94.578c-3.575 5.43-3.718 14.869-2.25 22.983-1.453-.8-2.466-2.627-3.092-4.778-.908-3.077-.683-6.057-2.315-8.226-1.441-1.877-4.36-3.295-6.378-3.295-1.287 0-1.726.566-2.698 2.45-4.127 7.971-8.903 13.623-17.855 15.537-3.485.751-8.175 1.164-10.216 3.611 5.56-.905 10.704-.406 13.447 2.023-9.301.634-15.492 5.554-16.002 13.169 3.8-4.718 9.485-6.38 13.694-5.172-8.134 3.28-11.454 12.599-8.674 19.545.938-4.09 3.654-7.577 6.85-8.421-3.42 5.468-1.646 12.737 2.533 16.209.582-5.333 4.127-9.007 7.88-9.131-2.916 3.621-4.094 10.298-1.918 14.591 1.79-6.729 7.128-9.12 12.182-7.836-1.853-3.798-3.67-7.532-5.339-9.326-1.67-1.794-3.782-2.139-5.977-1.208.406-1.877 1.948-2.864 3.917-2.962-2.026-1.613-6.532-1.242-9.045 1.734 0-3.524 2.731-5.535 5.44-5.704-1.276-1.475-3.43-1.655-5.598-1.066a5.153 5.153 0 0 1 4.532-2.556c3.066 0 5.722 2.398 7.68 5.348 3.002 4.553 5.5 12.193 7.695 15.519.972 1.463 2.12 2.454 4.019 2.454 1.466 0 3.826-.593 5.252-1.663.75-.574 1.017-1.125 1.017-2.811 0-1.782-.281-2.217-1.41-3.208-.98-.871-2.436-2.001-3.753-3.622 1.31-.687 2.514-.949 3.16-1.257.645-.308.799-.721.495-1.317-.462-.905-1.19-.897-2.251-.59a20.34 20.34 0 0 0-2.807 1.055 3.91 3.91 0 0 1-.555-1.708c0-.851.69-2.533 1.722-3.921.492-.672.71-.792 1.324-.792.792 0 2.923.199 5.298.199s4.502-.199 5.297-.199c.616 0 .833.12 1.329.792 1.028 1.388 1.718 3.07 1.718 3.921-.05.605-.24 1.19-.555 1.708a20.305 20.305 0 0 0-2.807-1.055c-1.076-.307-1.804-.315-2.251.59-.304.596-.116 1.02.495 1.317.612.296 1.85.57 3.16 1.257-1.31 1.621-2.766 2.751-3.752 3.622-1.126.991-1.407 1.426-1.407 3.208 0 1.701.259 2.252 1.013 2.811 1.422 1.07 3.782 1.663 5.252 1.663 1.899 0 3.047-.991 4.019-2.454 2.194-3.326 4.689-10.966 7.694-15.519 1.963-2.95 4.615-5.348 7.68-5.348a5.16 5.16 0 0 1 4.533 2.556c-2.169-.589-4.322-.409-5.598 1.066 2.709.169 5.44 2.18 5.44 5.704-2.514-2.976-7.02-3.347-9.046-1.734 1.97.098 3.512 1.089 3.917 2.962-2.194-.931-4.254-.635-5.973 1.208-1.718 1.843-3.485 5.528-5.342 9.326 5.057-1.284 10.392 1.107 12.182 7.836 2.18-4.293.998-10.97-1.917-14.591 3.752.105 7.297 3.798 7.879 9.131 4.179-3.472 5.954-10.741 2.532-16.209 3.197.844 5.913 4.331 6.851 8.421 2.78-6.946-.54-16.265-8.674-19.545 4.209-1.216 9.893.454 13.694 5.172-.51-7.615-6.701-12.535-16.002-13.169 2.743-2.429 7.879-2.928 13.447-2.023-2.041-2.447-6.731-2.86-10.216-3.611-8.952-1.914-13.743-7.566-17.855-15.537-.972-1.876-1.411-2.45-2.698-2.45-2.011 0-4.926 1.414-6.378 3.295-1.632 2.169-1.407 5.149-2.315 8.226-.626 2.166-1.639 3.978-3.087 4.778 1.455-8.114 1.316-17.553-2.263-22.983Z"/><path fill="#FDFDFD" d="M79.38 78.474c.594-1.284 1.036-3.021.834-4.08a9.448 9.448 0 0 0-3.516 2.14c.173-2.47.117-4.88-.319-6.61-6.96 4.275-12.56 17.013-13.911 24.988.641 1.951 3.069 3.79 5.519 4.203-1.464 1.051-4.056 1.501-6.446 1.126.897 1.554 3.174 2.597 5.478 2.717a8.461 8.461 0 0 1-2.848 2.481c3.084.454 7.684-1.336 9.06-3.948-1.421.259-3.203-.06-4.168-.871 2.383-.499 4.503-2 4.503-4.233.06-3.34-3.726-4.38-6.045-2.789.323-2.518 2.075-4.222 5.013-4.154-.162-1.321-1.456-2.74-2.968-3.246 1.366-1.164 3.437-1.126 5.065.07.638-.983 1.32-3.692 1.74-6.755a7.176 7.176 0 0 1 2.252 5.082c0 3.077-1.246 4.387-1.246 7.078 0 2.86 3.34 3.61 5.83 2.961 2.196-6.342.42-13.5-3.826-16.16ZM116.044 78.474c-.593-1.284-1.036-3.021-.833-4.08a9.448 9.448 0 0 1 3.515 2.14c-.169-2.47-.116-4.88.319-6.61 6.96 4.275 12.561 17.013 13.912 24.988-.623 1.951-3.065 3.79-5.53 4.203 1.463 1.051 4.055 1.501 6.445 1.126-.896 1.554-3.174 2.597-5.474 2.717a8.418 8.418 0 0 0 2.844 2.481c-3.084.454-7.684-1.336-9.06-3.948 1.422.259 3.204-.06 4.168-.871-2.379-.499-4.502-2-4.502-4.233-.064-3.34 3.721-4.38 6.04-2.789-.323-2.518-2.075-4.222-5.012-4.154.161-1.321 1.459-2.74 2.967-3.246-1.365-1.164-3.436-1.126-5.065.07-.634-.983-1.32-3.692-1.74-6.755a7.173 7.173 0 0 0-2.252 5.082c0 3.077 1.246 4.387 1.246 7.078 0 2.86-3.339 3.61-5.83 2.961-2.195-6.342-.405-13.5 3.842-16.16Z"/><path fill="#002F87" d="M91.84 122.758c-1.162 0-2.19-.495-3.18-1.46-1.625-1.576-3.692-4.92-5.463-6.642-1.178-1.126-2.379-1.723-3.557-1.723-2.019 0-3.838 1.711-4.333 4.065a5.918 5.918 0 0 1 3.376-1.078 6.527 6.527 0 0 0 1.375 8.612 6.515 6.515 0 0 0 8.706-.453c.671.602 1.531.95 2.432.984 1.598 0 2.772-1.213 3.001-2.961a4.915 4.915 0 0 1-2.356.656Zm-11.802-3.265a4.43 4.43 0 0 1 1.125-2.961c.852.505 1.63 1.124 2.315 1.839l.398.405c-.27.174-.578.282-.897.316a1.575 1.575 0 0 0 2.6 1.557c.68.784 1.306 1.531 1.876 2.154a4.44 4.44 0 0 1-4.786.757 4.444 4.444 0 0 1-2.635-4.067h.004Z"/><path fill="#FF4D00" d="M82.746 119.11a2.019 2.019 0 0 1-1.287-.443c-.075.27-.113.55-.112.83a3.165 3.165 0 0 0 3.635 3.11 3.164 3.164 0 0 0 1.617-.753l-1.032-1.201a1.574 1.574 0 0 1-2.538-.558 1.579 1.579 0 0 1-.061-1 1.64 1.64 0 0 1-.222.015Z"/><path fill="#002F87" d="M103.584 122.758c1.163 0 2.191-.495 3.181-1.46 1.625-1.576 3.692-4.92 5.463-6.642 1.178-1.126 2.379-1.723 3.557-1.723 2.018 0 3.842 1.711 4.337 4.065a5.92 5.92 0 0 0-3.377-1.078 6.524 6.524 0 0 1-5.821 10.168 6.518 6.518 0 0 1-4.294-2.005c-.67.602-1.53.95-2.431.983-1.598 0-2.772-1.212-3.001-2.961a4.9 4.9 0 0 0 2.386.653Zm11.803-3.265a4.43 4.43 0 0 0-1.125-2.961 10.885 10.885 0 0 0-2.315 1.839l-.398.405c.27.174.577.282.897.316a1.577 1.577 0 0 1-2.6 1.557c-.679.784-1.306 1.531-1.876 2.154a4.445 4.445 0 0 0 7.417-3.31Z"/><path fill="#FF4D00" d="M112.678 119.11a2.02 2.02 0 0 0 1.287-.443c.076.27.113.55.113.83a3.173 3.173 0 0 1-1.869 2.869 3.162 3.162 0 0 1-3.384-.512l1.032-1.201a1.574 1.574 0 0 0 2.538-.558c.129-.318.151-.669.062-1 .073.01.147.015.221.015Z"/></g><defs><clipPath id="a"><path fill="#fff" d="M0 0h199v181H0z"/></clipPath></defs></svg>